<?xml version="1.0" encoding="UTF-8" standalone="no"?>
<!-- Created with Inkscape (http://www.inkscape.org/) -->

<svg
   xmlns:dc="http://purl.org/dc/elements/1.1/"
   xmlns:cc="http://creativecommons.org/ns#"
   xmlns:rdf="http://www.w3.org/1999/02/22-rdf-syntax-ns#"
   xmlns:svg="http://www.w3.org/2000/svg"
   xmlns="http://www.w3.org/2000/svg"
   xmlns:inkscape="http://www.inkscape.org/namespaces/inkscape"
   version="1.0"
   width="220pt"
   height="180pt"
   id="svg2">
  <defs
     id="defs4" />
  <metadata
     id="metadata7">
    <rdf:RDF>
      <cc:Work
         rdf:about="">
        <dc:format>image/svg+xml</dc:format>
        <dc:type
           rdf:resource="http://purl.org/dc/dcmitype/StillImage" />
        <dc:title>Klechkovsky's rule</dc:title>
      </cc:Work>
    </rdf:RDF>
  </metadata>
  <g
     transform="translate(-15,-30)"
     id="layer1">
    <path
       d="m 50.666712,28.723306 4.758026,0 0,-16.422396 -5.176155,1.038114 0,-2.652959 5.147318,-1.0381148 2.912488,0 0,19.0753558 4.758025,0 0,2.451104 -12.399702,0 0,-2.451104 z m 28.216532,-13.221543 0,2.508777 c -0.749762,-0.384473 -1.528347,-0.672838 -2.335758,-0.865095 -0.807433,-0.19223 -1.643691,-0.288351 -2.508777,-0.288366 -1.316875,1.5e-5 -2.304524,0.20187 -2.962952,0.605567 -0.658439,0.403725 -0.987655,1.009291 -0.987651,1.816701 -4e-6,0.61519 0.235494,1.098201 0.706495,1.449035 0.470991,0.350854 1.417789,0.684877 2.840397,1.002069 l 0.90835,0.201855 c 1.883975,0.40372 3.222469,0.973241 4.015485,1.708564 0.792991,0.735338 1.189492,1.761436 1.189506,3.078298 -1.4e-5,1.499502 -0.593565,2.686604 -1.780655,3.56131 -1.187114,0.874708 -2.818779,1.312061 -4.894998,1.312061 -0.865102,0 -1.766243,-0.08411 -2.703424,-0.252319 -0.93719,-0.168213 -1.92484,-0.420532 -2.962952,-0.756959 l 0,-2.739469 c 0.980439,0.509448 1.946461,0.891532 2.89807,1.146252 0.9516,0.254724 1.893592,0.382085 2.825979,0.382084 1.249573,1e-6 2.21079,-0.213869 2.883651,-0.641613 0.672841,-0.427739 1.009267,-1.030902 1.009278,-1.809491 -1.1e-5,-0.720908 -0.242718,-1.273608 -0.728122,-1.6581 -0.485424,-0.384481 -1.549971,-0.754549 -3.193644,-1.110206 l -0.922768,-0.216274 c -1.643687,-0.34603 -2.830789,-0.877102 -3.56131,-1.593217 -0.730527,-0.716098 -1.09579,-1.698941 -1.095788,-2.948534 -2e-6,-1.51871 0.53828,-2.691394 1.614845,-3.518055 1.076559,-0.826631 2.604893,-1.239954 4.585006,-1.23997 0.980433,1.6e-5 1.903201,0.07211 2.768306,0.216273 0.865084,0.144199 1.662893,0.360473 2.393431,0.648822 l 0,0 z m -26.212394,50.132284 10.164872,0 0,2.451104 -13.668509,0 0,-2.451104 c 1.105397,-1.143845 2.612103,-2.679388 4.520124,-4.606633 1.908008,-1.927232 3.107125,-3.169604 3.597356,-3.72712 0.932369,-1.047715 1.583593,-1.934437 1.953674,-2.660169 0.370056,-0.725705 0.55509,-1.439408 0.555103,-2.141111 -1.3e-5,-1.143832 -0.401321,-2.076212 -1.203925,-2.797142 -0.802627,-0.720894 -1.84795,-1.08135 -3.135971,-1.08137 -0.913164,2e-5 -1.876783,0.158621 -2.890861,0.475803 -1.014088,0.31722 -2.09786,0.797828 -3.251317,1.441826 l 0,-2.941325 c 1.172682,-0.470975 2.268468,-0.826625 3.287363,-1.066951 1.018884,-0.240283 1.951263,-0.360435 2.797142,-0.360456 2.230013,2.1e-5 4.008263,0.557527 5.334756,1.672517 1.326464,1.115032 1.989704,2.604917 1.989719,4.469661 -1.5e-5,0.884334 -0.165825,1.722996 -0.49743,2.515986 -0.331635,0.793016 -0.934798,1.727799 -1.809491,2.804351 -0.240318,0.278763 -1.004485,1.083782 -2.292503,2.415058 -1.288041,1.331293 -3.10474,3.193649 -5.450102,5.587075 l 0,0 z m 26.212394,-13.221543 0,2.508777 c -0.749762,-0.384473 -1.528347,-0.672838 -2.335758,-0.865095 -0.807433,-0.192229 -1.643691,-0.288351 -2.508777,-0.288365 -1.316875,1.4e-5 -2.304524,0.201869 -2.962952,0.605567 -0.658439,0.403724 -0.987655,1.00929 -0.987651,1.8167 -4e-6,0.61519 0.235494,1.098202 0.706495,1.449035 0.470991,0.350854 1.417789,0.684877 2.840397,1.002069 l 0.90835,0.201856 c 1.883975,0.40372 3.222469,0.97324 4.015485,1.708563 0.792991,0.735338 1.189492,1.761437 1.189506,3.078298 -1.4e-5,1.499502 -0.593565,2.686604 -1.780655,3.56131 -1.187114,0.874708 -2.818779,1.312061 -4.894998,1.312062 -0.865102,-10e-7 -1.766243,-0.08411 -2.703424,-0.25232 -0.93719,-0.168213 -1.92484,-0.420532 -2.962952,-0.756958 l 0,-2.739469 c 0.980439,0.509447 1.946461,0.891531 2.89807,1.146251 0.9516,0.254725 1.893592,0.382086 2.825979,0.382084 1.249573,2e-6 2.21079,-0.213869 2.883651,-0.641613 0.672841,-0.427738 1.009267,-1.030902 1.009278,-1.809491 -1.1e-5,-0.720908 -0.242718,-1.273607 -0.728122,-1.6581 -0.485424,-0.38448 -1.549971,-0.754549 -3.193644,-1.110206 l -0.922768,-0.216273 c -1.643687,-0.346031 -2.830789,-0.877103 -3.56131,-1.593218 -0.730527,-0.716097 -1.09579,-1.698941 -1.095788,-2.948534 -2e-6,-1.51871 0.53828,-2.691394 1.614845,-3.518055 1.076559,-0.826631 2.604893,-1.239954 4.585006,-1.23997 0.980433,1.6e-5 1.903201,0.07211 2.768306,0.216274 0.865084,0.144199 1.662893,0.360472 2.393431,0.648821 l 0,0 z m 17.388421,13.221543 10.164875,0 0,2.451104 -13.668512,0 0,-2.451104 c 1.105397,-1.143845 2.612103,-2.679388 4.520124,-4.606633 1.908008,-1.927232 3.107128,-3.169604 3.597358,-3.72712 0.93237,-1.047715 1.58359,-1.934437 1.95367,-2.660169 0.37006,-0.725705 0.55509,-1.439408 0.5551,-2.141111 -10e-6,-1.143832 -0.40132,-2.076212 -1.20392,-2.797142 -0.80263,-0.720894 -1.84795,-1.08135 -3.135971,-1.08137 -0.913164,2e-5 -1.876783,0.158621 -2.890861,0.475803 -1.014089,0.31722 -2.09786,0.797828 -3.251317,1.441826 l 0,-2.941325 c 1.172681,-0.470975 2.268468,-0.826625 3.287363,-1.066951 1.018883,-0.240283 1.951263,-0.360435 2.797142,-0.360456 2.230014,2.1e-5 4.008264,0.557527 5.334754,1.672517 1.32647,1.115032 1.98971,2.604917 1.98972,4.469661 -1e-5,0.884334 -0.16582,1.722996 -0.49743,2.515986 -0.33163,0.793016 -0.9348,1.727799 -1.80949,2.804351 -0.24032,0.278763 -1.00448,1.083782 -2.2925,2.415058 -1.28804,1.331293 -3.104743,3.193649 -5.450105,5.587075 l 0,0 z m 18.484205,0.02884 0,8.564445 -2.66738,0 0,-22.290627 2.66738,0 0,2.451104 c 0.5575,-0.961203 1.26159,-1.674906 2.11228,-2.141112 0.85066,-0.466174 1.86715,-0.699269 3.04946,-0.699285 1.96087,1.6e-5 3.55408,0.778602 4.77965,2.335758 1.22553,1.557184 1.83831,3.604575 1.83833,6.142178 -2e-5,2.537619 -0.6128,4.585009 -1.83833,6.142178 -1.22557,1.557172 -2.81878,2.335757 -4.77965,2.335758 -1.18231,-10e-7 -2.1988,-0.233096 -3.04946,-0.699286 -0.85069,-0.466189 -1.55478,-1.179893 -2.11228,-2.141111 l 0,0 z m 9.02583,-5.637539 c -1e-5,-1.951261 -0.40132,-3.481998 -1.20392,-4.592215 -0.80263,-1.110193 -1.90563,-1.665295 -3.30899,-1.665309 -1.40339,1.4e-5 -2.50639,0.555116 -3.309,1.665309 -0.80262,1.110217 -1.20393,2.640954 -1.20392,4.592215 -1e-5,1.951277 0.4013,3.482014 1.20392,4.592215 0.80261,1.110208 1.90561,1.665311 3.309,1.665309 1.40336,2e-6 2.50636,-0.555101 3.30899,-1.665309 0.8026,-1.110201 1.20391,-2.640938 1.20392,-4.592215 l 0,0 z m -64.795653,33.36385 c 1.393752,0.297988 2.482329,0.917973 3.265736,1.859955 0.783376,0.942002 1.175071,2.105073 1.175088,3.489218 -1.7e-5,2.124292 -0.730541,3.767972 -2.191575,4.931042 -1.461063,1.16308 -3.53729,1.74461 -6.228688,1.74461 -0.903551,0 -1.833528,-0.0889 -2.789933,-0.26674 -0.956415,-0.17782 -1.944065,-0.44456 -2.962952,-0.80021 l 0,-2.81156 c 0.807419,0.471 1.691738,0.82665 2.652959,1.06695 0.961212,0.24031 1.965683,0.36046 3.013416,0.36046 1.826303,0 3.217664,-0.36046 4.174086,-1.08137 0.956398,-0.72091 1.434603,-1.76864 1.434617,-3.143182 -1.4e-5,-1.268799 -0.444576,-2.261255 -1.333689,-2.97737 -0.889137,-0.716097 -2.126703,-1.07415 -3.712701,-1.07416 l -2.508777,0 0,-2.393431 2.624123,0 c 1.432203,1.3e-5 2.52799,-0.285949 3.287363,-0.857886 0.759348,-0.571911 1.139029,-1.396153 1.139042,-2.472732 -1.3e-5,-1.105382 -0.391709,-1.953656 -1.175088,-2.544822 -0.783403,-0.59113 -1.905623,-0.886704 -3.366663,-0.886723 -0.797818,1.9e-5 -1.653301,0.08653 -2.56645,0.259528 -0.913162,0.173039 -1.917633,0.442179 -3.013416,0.807423 l 0,-2.595287 c 1.105395,-0.307568 2.141106,-0.53826 3.107134,-0.692076 0.966017,-0.153773 1.876769,-0.23067 2.73226,-0.230692 2.210789,2.2e-5 3.960202,0.502257 5.248246,1.506708 1.288016,1.004491 1.932031,2.362209 1.932047,4.073158 -1.6e-5,1.191924 -0.341248,2.198798 -1.023697,3.020625 -0.682478,0.821853 -1.653306,1.391374 -2.912488,1.708564 l 0,0 z m 19.897197,-4.065949 0,2.508777 c -0.749762,-0.384474 -1.528347,-0.672839 -2.335758,-0.865096 -0.807433,-0.192229 -1.643691,-0.288351 -2.508777,-0.288365 -1.316875,1.4e-5 -2.304524,0.20187 -2.962952,0.605567 -0.658439,0.403724 -0.987655,1.009291 -0.987651,1.8167 -4e-6,0.615191 0.235494,1.098202 0.706495,1.449035 0.470991,0.350855 1.417789,0.684877 2.840397,1.002069 l 0.90835,0.201856 c 1.883975,0.40372 3.222469,0.973241 4.015485,1.708564 0.792991,0.735338 1.189492,1.761436 1.189506,3.078297 -1.4e-5,1.4995 -0.593565,2.6866 -1.780655,3.56131 -1.187114,0.87471 -2.818779,1.31206 -4.894998,1.31206 -0.865102,0 -1.766243,-0.0841 -2.703424,-0.25232 -0.93719,-0.16821 -1.92484,-0.42053 -2.962952,-0.75696 l 0,-2.73947 c 0.980439,0.50945 1.946461,0.89154 2.89807,1.14626 0.9516,0.25472 1.893592,0.38208 2.825979,0.38208 1.249573,0 2.21079,-0.21387 2.883651,-0.64161 0.672841,-0.42774 1.009267,-1.0309 1.009278,-1.80949 -1.1e-5,-0.72091 -0.242718,-1.273611 -0.728122,-1.658103 -0.485424,-0.384481 -1.549971,-0.754549 -3.193644,-1.110206 l -0.922768,-0.216274 c -1.643687,-0.346031 -2.830789,-0.877103 -3.56131,-1.593218 -0.730527,-0.716097 -1.09579,-1.698941 -1.095788,-2.948534 -2e-6,-1.518709 0.53828,-2.691393 1.614845,-3.518055 1.076559,-0.82663 2.604893,-1.239953 4.585006,-1.23997 0.980433,1.7e-5 1.903201,0.07211 2.768306,0.216274 0.865084,0.144199 1.662893,0.360473 2.393431,0.648822 l 0,0 z m 23.703616,4.065949 c 1.39375,0.297988 2.48233,0.917973 3.26574,1.859955 0.78337,0.942002 1.17507,2.105073 1.17509,3.489218 -2e-5,2.124292 -0.73055,3.767972 -2.19158,4.931042 -1.46106,1.16308 -3.53729,1.74461 -6.228687,1.74461 -0.903551,0 -1.833528,-0.0889 -2.789933,-0.26674 -0.956416,-0.17782 -1.944065,-0.44456 -2.962952,-0.80021 l 0,-2.81156 c 0.807419,0.471 1.691738,0.82665 2.652959,1.06695 0.961212,0.24031 1.965683,0.36046 3.013416,0.36046 1.826307,0 3.217667,-0.36046 4.174087,-1.08137 0.9564,-0.72091 1.4346,-1.76864 1.43462,-3.143182 -2e-5,-1.268799 -0.44458,-2.261255 -1.33369,-2.97737 -0.88914,-0.716097 -2.12671,-1.07415 -3.712705,-1.07416 l -2.508777,0 0,-2.393431 2.624123,0 c 1.432209,1.3e-5 2.527989,-0.285949 3.287359,-0.857886 0.75935,-0.571911 1.13903,-1.396153 1.13905,-2.472732 -2e-5,-1.105382 -0.39171,-1.953656 -1.17509,-2.544822 -0.7834,-0.59113 -1.90562,-0.886704 -3.366665,-0.886723 -0.797818,1.9e-5 -1.6533,0.08653 -2.56645,0.259528 -0.913161,0.173039 -1.917632,0.442179 -3.013416,0.807423 l 0,-2.595287 c 1.105396,-0.307568 2.141107,-0.53826 3.107135,-0.692076 0.966016,-0.153773 1.876769,-0.23067 2.73226,-0.230692 2.210786,2.2e-5 3.960206,0.502257 5.248246,1.506708 1.28802,1.004491 1.93203,2.362209 1.93205,4.073158 -2e-5,1.191924 -0.34125,2.198798 -1.0237,3.020625 -0.68248,0.821853 -1.65331,1.391374 -2.91249,1.708564 l 0,0 z m 12.16901,9.184435 0,8.56444 -2.66738,0 0,-22.290627 2.66738,0 0,2.451104 c 0.5575,-0.961202 1.26159,-1.674906 2.11228,-2.141111 0.85066,-0.466174 1.86715,-0.699269 3.04946,-0.699286 1.96087,1.7e-5 3.55408,0.778602 4.77965,2.335758 1.22553,1.557185 1.83831,3.604575 1.83833,6.142178 -2e-5,2.537619 -0.6128,4.585014 -1.83833,6.142174 -1.22557,1.55718 -2.81878,2.33576 -4.77965,2.33576 -1.18231,0 -2.1988,-0.23309 -3.04946,-0.69928 -0.85069,-0.46619 -1.55478,-1.1799 -2.11228,-2.14111 l 0,0 z m 9.02583,-5.637544 c -1e-5,-1.951261 -0.40132,-3.481998 -1.20392,-4.592215 -0.80263,-1.110192 -1.90563,-1.665295 -3.30899,-1.665309 -1.40339,1.4e-5 -2.50639,0.555117 -3.309,1.665309 -0.80262,1.110217 -1.20393,2.640954 -1.20392,4.592215 -1e-5,1.951277 0.4013,3.482014 1.20392,4.592214 0.80261,1.11021 1.90561,1.66531 3.309,1.66531 1.40336,0 2.50636,-0.5551 3.30899,-1.66531 0.8026,-1.1102 1.20391,-2.640937 1.20392,-4.592214 l 0,0 z m 25.75101,-3.546891 c 1.39375,0.297988 2.48233,0.917973 3.26573,1.859955 0.78338,0.942002 1.17508,2.105073 1.17509,3.489218 -1e-5,2.124292 -0.73054,3.767972 -2.19157,4.931042 -1.46107,1.16308 -3.53729,1.74461 -6.22869,1.74461 -0.90355,0 -1.83353,-0.0889 -2.78993,-0.26674 -0.95642,-0.17782 -1.94407,-0.44456 -2.96296,-0.80021 l 0,-2.81156 c 0.80742,0.471 1.69174,0.82665 2.65296,1.06695 0.96122,0.24031 1.96569,0.36046 3.01342,0.36046 1.8263,0 3.21766,-0.36046 4.17409,-1.08137 0.95639,-0.72091 1.4346,-1.76864 1.43461,-3.143182 -1e-5,-1.268799 -0.44457,-2.261255 -1.33369,-2.97737 -0.88913,-0.716097 -2.1267,-1.07415 -3.7127,-1.07416 l -2.50878,0 0,-2.393431 2.62413,0 c 1.4322,1.3e-5 2.52799,-0.285949 3.28736,-0.857886 0.75935,-0.571911 1.13903,-1.396153 1.13904,-2.472732 -1e-5,-1.105382 -0.39171,-1.953656 -1.17508,-2.544822 -0.78341,-0.59113 -1.90563,-0.886704 -3.36667,-0.886723 -0.79782,1.9e-5 -1.6533,0.08653 -2.56645,0.259528 -0.91316,0.173039 -1.91763,0.442179 -3.01341,0.807423 l 0,-2.595287 c 1.10539,-0.307568 2.1411,-0.53826 3.10713,-0.692076 0.96602,-0.153773 1.87677,-0.23067 2.73226,-0.230692 2.21079,2.2e-5 3.9602,0.502257 5.24825,1.506708 1.28801,1.004491 1.93203,2.362209 1.93204,4.073158 -10e-6,1.191924 -0.34124,2.198798 -1.02369,3.020625 -0.68248,0.821853 -1.65331,1.391374 -2.91249,1.708564 l 0,0 z m 20.22881,-2.090648 0,-8.737464 2.65296,0 0,22.434807 -2.65296,0 0,-2.42226 c -0.55752,0.96121 -1.26161,1.67492 -2.11227,2.14111 -0.85069,0.46619 -1.87198,0.69928 -3.06388,0.69928 -1.95128,0 -3.53969,-0.77858 -4.76524,-2.33576 -1.22555,-1.55716 -1.83833,-3.604555 -1.83832,-6.142174 -1e-5,-2.537603 0.61277,-4.584993 1.83832,-6.142178 1.22555,-1.557156 2.81396,-2.335741 4.76524,-2.335758 1.1919,1.7e-5 2.21319,0.233112 3.06388,0.699286 0.85066,0.466205 1.55475,1.179909 2.11227,2.141111 l 0,0 z m -9.04024,5.637539 c -1e-5,1.951277 0.4013,3.482014 1.20392,4.592214 0.80261,1.11021 1.90561,1.66531 3.30899,1.66531 1.40337,0 2.50877,-0.5551 3.3162,-1.66531 0.80741,-1.1102 1.21112,-2.640937 1.21113,-4.592214 -1e-5,-1.951261 -0.40372,-3.481998 -1.21113,-4.592215 -0.80743,-1.110192 -1.91283,-1.665295 -3.3162,-1.665309 -1.40338,1.4e-5 -2.50638,0.555117 -3.30899,1.665309 -0.80262,1.110217 -1.20393,2.640954 -1.20392,4.592215 l 0,0 z m -102.557073,25.981704 -7.353312,11.49135 7.353312,0 0,-11.49135 z m -0.764168,-2.53762 3.662238,0 0,14.02897 3.071089,0 0,2.42227 -3.071089,0 0,5.07522 -2.89807,0 0,-5.07522 -9.717907,0 0,-2.81156 8.953739,-13.63968 z m 21.483205,5.85382 0,2.50877 c -0.749762,-0.38447 -1.528347,-0.67283 -2.335758,-0.86509 -0.807433,-0.19223 -1.643691,-0.28835 -2.508777,-0.28837 -1.316875,2e-5 -2.304524,0.20187 -2.962952,0.60557 -0.658439,0.40372 -0.987655,1.00929 -0.987651,1.8167 -4e-6,0.61519 0.235494,1.0982 0.706495,1.44904 0.470991,0.35085 1.417789,0.68487 2.840397,1.00206 l 0.90835,0.20186 c 1.883975,0.40372 3.222469,0.97324 4.015485,1.70856 0.792991,0.73534 1.189492,1.76144 1.189506,3.0783 -1.4e-5,1.4995 -0.593565,2.68661 -1.780655,3.56131 -1.187114,0.87471 -2.818779,1.31206 -4.894998,1.31206 -0.865102,0 -1.766243,-0.0841 -2.703424,-0.25232 -0.93719,-0.16821 -1.92484,-0.42053 -2.962952,-0.75695 l 0,-2.73947 c 0.980439,0.50944 1.946461,0.89153 2.89807,1.14625 0.9516,0.25472 1.893592,0.38208 2.825979,0.38208 1.249573,0 2.21079,-0.21387 2.883651,-0.64161 0.672841,-0.42774 1.009267,-1.0309 1.009278,-1.80949 -1.1e-5,-0.72091 -0.242718,-1.27361 -0.728122,-1.6581 -0.485424,-0.38448 -1.549971,-0.75455 -3.193644,-1.11021 l -0.922768,-0.21627 c -1.643687,-0.34603 -2.830789,-0.8771 -3.56131,-1.59322 -0.730527,-0.7161 -1.09579,-1.69894 -1.095788,-2.94853 -2e-6,-1.51871 0.53828,-2.6914 1.614845,-3.51806 1.076559,-0.82663 2.604893,-1.23995 4.585006,-1.23997 0.980433,2e-5 1.903201,0.0721 2.768306,0.21628 0.865084,0.14419 1.662893,0.36047 2.393431,0.64882 l 0,0 z m 22.881776,-3.3162 -7.35331,11.49135 7.35331,0 0,-11.49135 z m -0.76417,-2.53762 3.66224,0 0,14.02897 3.07109,0 0,2.42227 -3.07109,0 0,5.07522 -2.89807,0 0,-5.07522 -9.717905,0 0,-2.81156 8.953735,-13.63968 z m 13.75502,19.1042 0,8.56444 -2.66738,0 0,-22.29063 2.66738,0 0,2.45111 c 0.5575,-0.9612 1.26159,-1.67491 2.11228,-2.14111 0.85066,-0.46618 1.86715,-0.69927 3.04946,-0.69929 1.96087,2e-5 3.55408,0.7786 4.77965,2.33576 1.22553,1.55718 1.83831,3.60457 1.83833,6.14218 -2e-5,2.53762 -0.6128,4.58501 -1.83833,6.14218 -1.22557,1.55717 -2.81878,2.33575 -4.77965,2.33575 -1.18231,0 -2.1988,-0.23309 -3.04946,-0.69928 -0.85069,-0.46619 -1.55478,-1.17989 -2.11228,-2.14111 l 0,0 z m 9.02583,-5.63754 c -1e-5,-1.95126 -0.40132,-3.482 -1.20392,-4.59222 -0.80263,-1.11019 -1.90563,-1.66529 -3.30899,-1.66531 -1.40339,2e-5 -2.50639,0.55512 -3.309,1.66531 -0.80262,1.11022 -1.20393,2.64096 -1.20392,4.59222 -1e-5,1.95127 0.4013,3.48201 1.20392,4.59221 0.80261,1.11021 1.90561,1.66531 3.309,1.66531 1.40336,0 2.50636,-0.5551 3.30899,-1.66531 0.8026,-1.1102 1.20391,-2.64094 1.20392,-4.59221 l 0,0 z m 24.92917,-10.92904 -7.35331,11.49135 7.35331,0 0,-11.49135 z m -0.76417,-2.53762 3.66224,0 0,14.02897 3.07109,0 0,2.42227 -3.07109,0 0,5.07522 -2.89807,0 0,-5.07522 -9.71791,0 0,-2.81156 8.95374,-13.63968 z m 21.81482,7.82912 0,-8.73747 2.65296,0 0,22.43481 -2.65296,0 0,-2.42226 c -0.55752,0.96122 -1.26161,1.67492 -2.11227,2.14111 -0.85069,0.46619 -1.87198,0.69928 -3.06388,0.69928 -1.95128,0 -3.53969,-0.77858 -4.76524,-2.33575 -1.22555,-1.55717 -1.83833,-3.60456 -1.83832,-6.14218 -1e-5,-2.53761 0.61277,-4.585 1.83832,-6.14218 1.22555,-1.55716 2.81396,-2.33574 4.76524,-2.33576 1.1919,2e-5 2.21319,0.23311 3.06388,0.69929 0.85066,0.4662 1.55475,1.17991 2.11227,2.14111 l 0,0 z m -9.04024,5.63754 c -1e-5,1.95127 0.4013,3.48201 1.20392,4.59221 0.80261,1.11021 1.90561,1.66531 3.30899,1.66531 1.40337,0 2.50877,-0.5551 3.3162,-1.66531 0.80741,-1.1102 1.21112,-2.64094 1.21113,-4.59221 -1e-5,-1.95126 -0.40372,-3.482 -1.21113,-4.59222 -0.80743,-1.11019 -1.91283,-1.66529 -3.3162,-1.66531 -1.40338,2e-5 -2.50638,0.55512 -3.30899,1.66531 -0.80262,1.11022 -1.20393,2.64096 -1.20392,4.59222 l 0,0 z m 34.93543,-10.92904 -7.35331,11.49135 7.35331,0 0,-11.49135 z m -0.76416,-2.53762 3.66223,0 0,14.02897 3.07109,0 0,2.42227 -3.07109,0 0,5.07522 -2.89807,0 0,-5.07522 -9.7179,0 0,-2.81156 8.95374,-13.63968 z m 19.36372,-0.90835 0,2.206 -2.53762,0 c -0.95161,2e-5 -1.61245,0.19226 -1.98251,0.57673 -0.37007,0.3845 -0.55511,1.07658 -0.5551,2.07623 l 0,1.4274 4.36873,0 0,2.06182 -4.36873,0 0,14.08663 -2.66738,0 0,-14.08663 -2.53761,0 0,-2.06182 2.53761,0 0,-1.12462 c 0,-1.79746 0.41813,-3.10711 1.25439,-3.92898 0.83625,-0.82181 2.16273,-1.23273 3.97944,-1.23276 l 2.50878,0 z m -164.06536,37.8191 11.433679,0 0,2.4511 -8.766301,0 0,5.27708 c 0.422929,-0.14417 0.845864,-0.2523 1.268806,-0.32441 0.422928,-0.0721 0.845863,-0.10812 1.268807,-0.10814 2.403032,2e-5 4.30624,0.65845 5.70963,1.97531 1.403362,1.31687 2.10505,3.09993 2.105066,5.34917 -1.6e-5,2.31654 -0.720928,4.11641 -2.162739,5.39964 -1.441838,1.28322 -3.474811,1.92483 -6.098923,1.92483 -0.903551,0 -1.823916,-0.0769 -2.761096,-0.23069 -0.937192,-0.15379 -1.905617,-0.38448 -2.90528,-0.69207 l 0,-2.92691 c 0.865093,0.471 1.759024,0.82184 2.681797,1.05253 0.922762,0.2307 1.898397,0.34604 2.926906,0.34604 1.662896,0 2.979762,-0.43735 3.950603,-1.31206 0.970816,-0.8747 1.456231,-2.06181 1.456244,-3.56131 -1.3e-5,-1.49949 -0.485428,-2.68659 -1.456244,-3.56131 -0.970841,-0.8747 -2.287707,-1.31205 -3.950603,-1.31206 -0.778593,1e-5 -1.554775,0.0865 -2.328549,0.25953 -0.773784,0.17303 -1.564385,0.44217 -2.371803,0.80742 l 0,-10.81369 z m 28.692334,5.85381 0,2.50878 c -0.749762,-0.38448 -1.528347,-0.67284 -2.335758,-0.8651 -0.807433,-0.19223 -1.643691,-0.28835 -2.508777,-0.28837 -1.316875,2e-5 -2.304524,0.20187 -2.962952,0.60557 -0.658439,0.40373 -0.987655,1.00929 -0.987651,1.8167 -4e-6,0.61519 0.235494,1.0982 0.706495,1.44904 0.470991,0.35085 1.417789,0.68487 2.840397,1.00207 l 0.90835,0.20185 c 1.883975,0.40372 3.222469,0.97324 4.015485,1.70857 0.792991,0.73533 1.189492,1.76143 1.189506,3.07829 -1.4e-5,1.49951 -0.593565,2.68661 -1.780655,3.56131 -1.187114,0.87471 -2.818779,1.31206 -4.894998,1.31206 -0.865102,0 -1.766243,-0.0841 -2.703424,-0.25231 -0.93719,-0.16822 -1.92484,-0.42054 -2.962952,-0.75696 l 0,-2.73947 c 0.980439,0.50945 1.946461,0.89153 2.89807,1.14625 0.9516,0.25472 1.893592,0.38208 2.825979,0.38208 1.249573,0 2.21079,-0.21387 2.883651,-0.64161 0.672841,-0.42774 1.009267,-1.0309 1.009278,-1.80949 -1.1e-5,-0.72091 -0.242718,-1.27361 -0.728122,-1.6581 -0.485424,-0.38448 -1.549971,-0.75455 -3.193644,-1.11021 l -0.922768,-0.21627 c -1.643687,-0.34603 -2.830789,-0.8771 -3.56131,-1.59322 -0.730527,-0.7161 -1.09579,-1.69894 -1.095788,-2.94853 -2e-6,-1.51871 0.53828,-2.6914 1.614845,-3.51806 1.076559,-0.82663 2.604893,-1.23995 4.585006,-1.23997 0.980433,2e-5 1.903201,0.0721 2.768306,0.21628 0.865084,0.1442 1.662893,0.36047 2.393431,0.64882 l 0,0 z m 14.908481,-5.85381 11.433675,0 0,2.4511 -8.766298,0 0,5.27708 c 0.42293,-0.14417 0.845865,-0.2523 1.268807,-0.32441 0.422928,-0.0721 0.845863,-0.10812 1.268807,-0.10814 2.403034,2e-5 4.306244,0.65845 5.709634,1.97531 1.40336,1.31687 2.10505,3.09993 2.10506,5.34917 -10e-6,2.31654 -0.72093,4.11641 -2.16274,5.39964 -1.44184,1.28322 -3.47481,1.92483 -6.09892,1.92483 -0.903551,0 -1.823916,-0.0769 -2.761097,-0.23069 -0.937191,-0.15379 -1.905616,-0.38448 -2.905279,-0.69207 l 0,-2.92691 c 0.865093,0.471 1.759024,0.82184 2.681796,1.05253 0.922763,0.2307 1.898397,0.34604 2.926907,0.34604 1.662893,0 2.979763,-0.43735 3.950603,-1.31206 0.97082,-0.8747 1.45623,-2.06181 1.45624,-3.56131 -1e-5,-1.49949 -0.48542,-2.68659 -1.45624,-3.56131 -0.97084,-0.8747 -2.28771,-1.31205 -3.950603,-1.31206 -0.778593,1e-5 -1.554775,0.0865 -2.328549,0.25953 -0.773785,0.17303 -1.564385,0.44217 -2.371803,0.80742 l 0,-10.81369 z m 20.964145,19.10419 0,8.56444 -2.66738,0 0,-22.29062 2.66738,0 0,2.4511 c 0.5575,-0.9612 1.26159,-1.67491 2.11228,-2.14111 0.85066,-0.46618 1.86715,-0.69927 3.04946,-0.69929 1.96087,2e-5 3.55408,0.7786 4.77965,2.33576 1.22553,1.55719 1.83831,3.60458 1.83833,6.14218 -2e-5,2.53762 -0.6128,4.58501 -1.83833,6.14218 -1.22557,1.55717 -2.81878,2.33575 -4.77965,2.33575 -1.18231,0 -2.1988,-0.23309 -3.04946,-0.69928 -0.85069,-0.46619 -1.55478,-1.17989 -2.11228,-2.14111 l 0,0 z m 9.02583,-5.63754 c -1e-5,-1.95126 -0.40132,-3.482 -1.20392,-4.59222 -0.80263,-1.11019 -1.90563,-1.66529 -3.30899,-1.66531 -1.40339,2e-5 -2.50639,0.55512 -3.309,1.66531 -0.80262,1.11022 -1.20393,2.64096 -1.20392,4.59222 -1e-5,1.95128 0.4013,3.48201 1.20392,4.59221 0.80261,1.11021 1.90561,1.66531 3.309,1.66531 1.40336,0 2.50636,-0.5551 3.30899,-1.66531 0.8026,-1.1102 1.20391,-2.64093 1.20392,-4.59221 l 0,0 z m 16.95587,-13.46665 11.43368,0 0,2.4511 -8.7663,0 0,5.27708 c 0.42293,-0.14417 0.84586,-0.2523 1.26881,-0.32441 0.42292,-0.0721 0.84586,-0.10812 1.2688,-0.10814 2.40303,2e-5 4.30624,0.65845 5.70963,1.97531 1.40336,1.31687 2.10505,3.09993 2.10507,5.34917 -2e-5,2.31654 -0.72093,4.11641 -2.16274,5.39964 -1.44184,1.28322 -3.47481,1.92483 -6.09892,1.92483 -0.90355,0 -1.82392,-0.0769 -2.7611,-0.23069 -0.93719,-0.15379 -1.90562,-0.38448 -2.90528,-0.69207 l 0,-2.92691 c 0.86509,0.471 1.75902,0.82184 2.6818,1.05253 0.92276,0.2307 1.89839,0.34604 2.9269,0.34604 1.6629,0 2.97977,-0.43735 3.95061,-1.31206 0.97081,-0.8747 1.45623,-2.06181 1.45624,-3.56131 -1e-5,-1.49949 -0.48543,-2.68659 -1.45624,-3.56131 -0.97084,-0.8747 -2.28771,-1.31205 -3.95061,-1.31206 -0.77859,1e-5 -1.55477,0.0865 -2.32855,0.25953 -0.77378,0.17303 -1.56438,0.44217 -2.3718,0.80742 l 0,-10.81369 z m 29.02395,7.82911 0,-8.73746 2.65296,0 0,22.43481 -2.65296,0 0,-2.42227 c -0.55752,0.96122 -1.26161,1.67492 -2.11227,2.14111 -0.85069,0.46619 -1.87198,0.69928 -3.06388,0.69928 -1.95128,0 -3.53969,-0.77858 -4.76524,-2.33575 -1.22555,-1.55717 -1.83833,-3.60456 -1.83832,-6.14218 -1e-5,-2.5376 0.61277,-4.58499 1.83832,-6.14218 1.22555,-1.55716 2.81396,-2.33574 4.76524,-2.33576 1.1919,2e-5 2.21319,0.23311 3.06388,0.69929 0.85066,0.4662 1.55475,1.17991 2.11227,2.14111 l 0,0 z m -9.04024,5.63754 c -1e-5,1.95128 0.4013,3.48201 1.20392,4.59221 0.80261,1.11021 1.90561,1.66531 3.30899,1.66531 1.40337,0 2.50877,-0.5551 3.3162,-1.66531 0.80741,-1.1102 1.21112,-2.64093 1.21113,-4.59221 -1e-5,-1.95126 -0.40372,-3.482 -1.21113,-4.59222 -0.80743,-1.11019 -1.91283,-1.66529 -3.3162,-1.66531 -1.40338,2e-5 -2.50638,0.55512 -3.30899,1.66531 -0.80262,1.11022 -1.20393,2.64096 -1.20392,4.59222 l 0,0 z m 26.96214,-13.46665 11.43368,0 0,2.4511 -8.7663,0 0,5.27708 c 0.42292,-0.14417 0.84586,-0.2523 1.2688,-0.32441 0.42293,-0.0721 0.84587,-0.10812 1.26881,-0.10814 2.40303,2e-5 4.30624,0.65845 5.70963,1.97531 1.40336,1.31687 2.10505,3.09993 2.10506,5.34917 -1e-5,2.31654 -0.72092,4.11641 -2.16273,5.39964 -1.44184,1.28322 -3.47481,1.92483 -6.09893,1.92483 -0.90355,0 -1.82391,-0.0769 -2.76109,-0.23069 -0.93719,-0.15379 -1.90562,-0.38448 -2.90528,-0.69207 l 0,-2.92691 c 0.86509,0.471 1.75902,0.82184 2.68179,1.05253 0.92277,0.2307 1.8984,0.34604 2.92691,0.34604 1.6629,0 2.97976,-0.43735 3.9506,-1.31206 0.97082,-0.8747 1.45623,-2.06181 1.45625,-3.56131 -2e-5,-1.49949 -0.48543,-2.68659 -1.45625,-3.56131 -0.97084,-0.8747 -2.2877,-1.31205 -3.9506,-1.31206 -0.77859,1e-5 -1.55478,0.0865 -2.32855,0.25953 -0.77378,0.17303 -1.56438,0.44217 -2.3718,0.80742 l 0,-10.81369 z m 26.57285,-0.90835 0,2.20599 -2.53762,0 c -0.95161,2e-5 -1.61245,0.19226 -1.98251,0.57673 -0.37007,0.38451 -0.55511,1.07658 -0.5551,2.07623 l 0,1.42741 4.36873,0 0,2.06181 -4.36873,0 0,14.08664 -2.66738,0 0,-14.08664 -2.53761,0 0,-2.06181 2.53761,0 0,-1.12463 c 0,-1.79746 0.41813,-3.10711 1.25439,-3.92897 0.83625,-0.82182 2.16273,-1.23274 3.97944,-1.23276 l 2.50878,0 z m 11.98158,18.77257 3.04225,0 0,3.66224 -3.04225,0 0,-3.66224 z m 9.40069,0 3.04226,0 0,3.66224 -3.04226,0 0,-3.66224 z m 9.40072,0 3.04225,0 0,3.66224 -3.04225,0 0,-3.66224 z M 56.751217,203.80422 c -1.307264,1e-5 -2.342974,0.44697 -3.107134,1.34089 -0.764174,0.89395 -1.146257,2.1195 -1.146252,3.67666 -5e-6,1.54757 0.382078,2.77071 1.146252,3.66945 0.76416,0.89874 1.79987,1.34811 3.107134,1.3481 1.307245,1e-5 2.342955,-0.44936 3.107135,-1.3481 0.764154,-0.89874 1.146237,-2.12188 1.146251,-3.66945 -1.4e-5,-1.55716 -0.382097,-2.78271 -1.146251,-3.67666 -0.76418,-0.89392 -1.79989,-1.34088 -3.107135,-1.34089 l 0,0 z m 5.781722,-9.12676 0,2.65296 c -0.73054,-0.34602 -1.468274,-0.61036 -2.213203,-0.79301 -0.744956,-0.18261 -1.482689,-0.27392 -2.213202,-0.27394 -1.922444,2e-5 -3.390702,0.64884 -4.404778,1.94646 -1.01409,1.29766 -1.593223,3.25854 -1.7374,5.88265 0.567112,-0.83624 1.278412,-1.47786 2.133902,-1.92484 0.855475,-0.44695 1.797467,-0.67043 2.825978,-0.67044 2.162727,1e-5 3.871289,0.65604 5.125691,1.96809 1.254372,1.31207 1.881566,3.09753 1.881583,5.35638 -1.7e-5,2.21081 -0.653644,3.98425 -1.960883,5.32034 -1.307269,1.33609 -3.047071,2.00414 -5.21941,2.00414 -2.48956,0 -4.392768,-0.95401 -5.70963,-2.86203 -1.31687,-1.90801 -1.975303,-4.67391 -1.975301,-8.29771 -2e-6,-3.40269 0.807419,-6.11572 2.422267,-8.1391 1.614839,-2.02334 3.782381,-3.03502 6.502634,-3.03505 0.730514,3e-5 1.468247,0.0721 2.213203,0.21628 0.74493,0.1442 1.521112,0.36048 2.328549,0.64882 l 0,0 z m 16.350305,5.37801 0,2.50878 c -0.749762,-0.38448 -1.528347,-0.67284 -2.335758,-0.8651 -0.807433,-0.19223 -1.643691,-0.28835 -2.508777,-0.28836 -1.316875,1e-5 -2.304524,0.20187 -2.962952,0.60556 -0.658439,0.40373 -0.987655,1.00929 -0.987651,1.8167 -4e-6,0.61519 0.235494,1.0982 0.706495,1.44904 0.470991,0.35085 1.417789,0.68488 2.840397,1.00207 l 0.90835,0.20185 c 1.883975,0.40372 3.222469,0.97324 4.015485,1.70857 0.792991,0.73533 1.189492,1.76143 1.189506,3.07829 -1.4e-5,1.49951 -0.593565,2.68661 -1.780655,3.56131 -1.187114,0.87471 -2.818779,1.31207 -4.894998,1.31207 -0.865102,0 -1.766243,-0.0841 -2.703424,-0.25232 -0.93719,-0.16822 -1.92484,-0.42054 -2.962952,-0.75696 l 0,-2.73947 c 0.980439,0.50945 1.946461,0.89153 2.89807,1.14625 0.9516,0.25472 1.893592,0.38209 2.825979,0.38208 1.249573,1e-5 2.21079,-0.21386 2.883651,-0.64161 0.672841,-0.42774 1.009267,-1.0309 1.009278,-1.80949 -1.1e-5,-0.72091 -0.242718,-1.27361 -0.728122,-1.6581 -0.485424,-0.38448 -1.549971,-0.75455 -3.193644,-1.11021 l -0.922768,-0.21627 c -1.643687,-0.34603 -2.830789,-0.8771 -3.56131,-1.59322 -0.730527,-0.71609 -1.09579,-1.69894 -1.095788,-2.94853 -2e-6,-1.51871 0.53828,-2.69139 1.614845,-3.51806 1.076559,-0.82663 2.604893,-1.23995 4.585006,-1.23997 0.980433,2e-5 1.903201,0.0721 2.768306,0.21628 0.865084,0.1442 1.662893,0.36047 2.393431,0.64882 l 0,0 z m 21.468786,3.74875 c -1.307262,1e-5 -2.342972,0.44697 -3.107133,1.34089 -0.764173,0.89395 -1.146257,2.1195 -1.146251,3.67666 -6e-6,1.54757 0.382078,2.77071 1.146251,3.66945 0.764161,0.89874 1.799871,1.34811 3.107133,1.3481 1.30725,1e-5 2.34296,-0.44936 3.10714,-1.3481 0.76415,-0.89874 1.14623,-2.12188 1.14625,-3.66945 -2e-5,-1.55716 -0.3821,-2.78271 -1.14625,-3.67666 -0.76418,-0.89392 -1.79989,-1.34088 -3.10714,-1.34089 l 0,0 z m 5.78172,-9.12676 0,2.65296 c -0.73054,-0.34602 -1.46827,-0.61036 -2.2132,-0.79301 -0.74495,-0.18261 -1.48269,-0.27392 -2.2132,-0.27394 -1.922445,2e-5 -3.390703,0.64884 -4.40478,1.94646 -1.014089,1.29766 -1.593222,3.25854 -1.7374,5.88265 0.567113,-0.83624 1.278413,-1.47786 2.133903,-1.92484 0.855475,-0.44695 1.797467,-0.67043 2.825977,-0.67044 2.16273,1e-5 3.87129,0.65604 5.12569,1.96809 1.25437,1.31207 1.88157,3.09753 1.88158,5.35638 -1e-5,2.21081 -0.65364,3.98425 -1.96088,5.32034 -1.30727,1.33609 -3.04707,2.00414 -5.21941,2.00414 -2.489558,0 -4.392766,-0.95401 -5.709628,-2.86203 -1.316871,-1.90801 -1.975304,-4.67391 -1.975302,-8.29771 -2e-6,-3.40269 0.80742,-6.11572 2.422268,-8.1391 1.614839,-2.02334 3.782381,-3.03502 6.502632,-3.03505 0.73052,3e-5 1.46825,0.0721 2.2132,0.21628 0.74493,0.1442 1.52112,0.36048 2.32855,0.64882 l 0,0 z m 8.62212,18.62839 0,8.56444 -2.66738,0 0,-22.29062 2.66738,0 0,2.4511 c 0.5575,-0.9612 1.26159,-1.6749 2.11228,-2.14111 0.85066,-0.46617 1.86715,-0.69927 3.04946,-0.69929 1.96087,2e-5 3.55408,0.77861 4.77965,2.33576 1.22553,1.55719 1.83831,3.60458 1.83833,6.14218 -2e-5,2.53762 -0.6128,4.58501 -1.83833,6.14218 -1.22557,1.55717 -2.81878,2.33576 -4.77965,2.33576 -1.18231,0 -2.1988,-0.2331 -3.04946,-0.69929 -0.85069,-0.46619 -1.55478,-1.17989 -2.11228,-2.14111 l 0,0 z m 9.02583,-5.63754 c -1e-5,-1.95126 -0.40132,-3.482 -1.20392,-4.59222 -0.80263,-1.11019 -1.90563,-1.66529 -3.30899,-1.6653 -1.40339,1e-5 -2.50639,0.55511 -3.309,1.6653 -0.80262,1.11022 -1.20393,2.64096 -1.20392,4.59222 -1e-5,1.95128 0.4013,3.48201 1.20392,4.59222 0.80261,1.1102 1.90561,1.66531 3.309,1.6653 1.40336,1e-5 2.50636,-0.5551 3.30899,-1.6653 0.8026,-1.11021 1.20391,-2.64094 1.20392,-4.59222 l 0,0 z m 23.51618,-3.86409 c -1.30727,1e-5 -2.34298,0.44697 -3.10714,1.34089 -0.76417,0.89395 -1.14625,2.1195 -1.14625,3.67666 0,1.54757 0.38208,2.77071 1.14625,3.66945 0.76416,0.89874 1.79987,1.34811 3.10714,1.3481 1.30724,1e-5 2.34295,-0.44936 3.10713,-1.3481 0.76416,-0.89874 1.14624,-2.12188 1.14625,-3.66945 -1e-5,-1.55716 -0.38209,-2.78271 -1.14625,-3.67666 -0.76418,-0.89392 -1.79989,-1.34088 -3.10713,-1.34089 l 0,0 z m 5.78172,-9.12676 0,2.65296 c -0.73054,-0.34602 -1.46827,-0.61036 -2.2132,-0.79301 -0.74496,-0.18261 -1.48269,-0.27392 -2.21321,-0.27394 -1.92244,2e-5 -3.3907,0.64884 -4.40477,1.94646 -1.01409,1.29766 -1.59323,3.25854 -1.7374,5.88265 0.56711,-0.83624 1.27841,-1.47786 2.1339,-1.92484 0.85547,-0.44695 1.79747,-0.67043 2.82598,-0.67044 2.16272,1e-5 3.87129,0.65604 5.12569,1.96809 1.25437,1.31207 1.88156,3.09753 1.88158,5.35638 -2e-5,2.21081 -0.65364,3.98425 -1.96088,5.32034 -1.30727,1.33609 -3.04707,2.00414 -5.21941,2.00414 -2.48956,0 -4.39277,-0.95401 -5.70963,-2.86203 -1.31687,-1.90801 -1.97531,-4.67391 -1.9753,-8.29771 -1e-5,-3.40269 0.80742,-6.11572 2.42226,-8.1391 1.61484,-2.02334 3.78239,-3.03502 6.50264,-3.03505 0.73051,3e-5 1.46825,0.0721 2.2132,0.21628 0.74493,0.1442 1.52111,0.36048 2.32855,0.64882 l 0,0 z m 16.68192,7.35331 0,-8.73746 2.65296,0 0,22.43481 -2.65296,0 0,-2.42227 c -0.55752,0.96122 -1.26161,1.67492 -2.11227,2.14111 -0.85069,0.46619 -1.87198,0.69929 -3.06388,0.69929 -1.95128,0 -3.53969,-0.77859 -4.76524,-2.33576 -1.22555,-1.55717 -1.83833,-3.60456 -1.83832,-6.14218 -1e-5,-2.5376 0.61277,-4.58499 1.83832,-6.14218 1.22555,-1.55715 2.81396,-2.33574 4.76524,-2.33576 1.1919,2e-5 2.21319,0.23312 3.06388,0.69929 0.85066,0.46621 1.55475,1.17991 2.11227,2.14111 l 0,0 z m -9.04024,5.63754 c -1e-5,1.95128 0.4013,3.48201 1.20392,4.59222 0.80261,1.1102 1.90561,1.66531 3.30899,1.6653 1.40337,1e-5 2.50877,-0.5551 3.3162,-1.6653 0.80741,-1.11021 1.21112,-2.64094 1.21113,-4.59222 -1e-5,-1.95126 -0.40372,-3.482 -1.21113,-4.59222 -0.80743,-1.11019 -1.91283,-1.66529 -3.3162,-1.6653 -1.40338,1e-5 -2.50638,0.55511 -3.30899,1.6653 -0.80262,1.11022 -1.20393,2.64096 -1.20392,4.59222 l 0,0 z m 26.9333,4.39757 3.04225,0 0,3.66224 -3.04225,0 0,-3.66224 z m 9.40071,0 3.04225,0 0,3.66224 -3.04225,0 0,-3.66224 z m 9.4007,0 3.04225,0 0,3.66224 -3.04225,0 0,-3.66224 z m 18.80142,0 3.04225,0 0,3.66224 -3.04225,0 0,-3.66224 z m 9.4007,0 3.04225,0 0,3.66224 -3.04225,0 0,-3.66224 z m 9.40071,0 3.04225,0 0,3.66224 -3.04225,0 0,-3.66224 z m 18.8014,0 3.04226,0 0,3.66224 -3.04226,0 0,-3.66224 z m 9.4007,0 3.04225,0 0,3.66224 -3.04225,0 0,-3.66224 z m 9.40071,0 3.04225,0 0,3.66224 -3.04225,0 0,-3.66224 z"
       inkscape:connector-curvature="0"
       transform="matrix(1.03425,0,0,0.966885,-12.8571,30.7143)"
       id="text1307"
       style="font-size:29.52860069px;font-style:normal;font-weight:normal;fill:#000000;fill-opacity:1;stroke:none;font-family:Bitstream Vera Sans" />
    <path
       d="m 169.28571,37.142857 102.85715,0 -0.71429,-0.714286"
       inkscape:connector-curvature="0"
       transform="matrix(0.515223,-0.35613,0.677145,0.979644,-83.4408,96.297)"
       id="path3156"
       style="fill:none;stroke:#ff0000;stroke-width:1px;stroke-linecap:butt;stroke-linejoin:miter;stroke-opacity:1" />
    <path
       d="m 169.28571,37.142857 102.85715,0 -0.71429,-0.714286"
       inkscape:connector-curvature="0"
       transform="matrix(0.876251,-0.647647,0.629094,0.851149,-142.122,220.656)"
       id="path4127"
       style="fill:none;stroke:#ff0000;stroke-width:1px;stroke-linecap:butt;stroke-linejoin:miter;stroke-opacity:1" />
    <path
       d="m 169.28571,37.142857 102.85715,0 -0.71429,-0.714286"
       inkscape:connector-curvature="0"
       transform="matrix(1.44926,-1.06553,0.416983,0.567149,-231.173,370.995)"
       id="path4131"
       style="fill:none;stroke:#ff0000;stroke-width:1px;stroke-linecap:butt;stroke-linejoin:miter;stroke-opacity:1" />
    <path
       d="m 169.28571,37.142857 102.85715,0 -0.71429,-0.714286"
       inkscape:connector-curvature="0"
       transform="matrix(0.509974,-0.363607,0.691362,0.969663,-82.8065,134.318)"
       id="path4137"
       style="fill:none;stroke:#ff0000;stroke-width:1px;stroke-linecap:butt;stroke-linejoin:miter;stroke-opacity:1" />
    <path
       d="m 169.28571,37.142857 102.85715,0 -0.71429,-0.714286"
       inkscape:connector-curvature="0"
       transform="matrix(0.951467,-0.719411,0.698803,0.924211,-157.049,264.499)"
       id="path4139"
       style="fill:none;stroke:#ff0000;stroke-width:1px;stroke-linecap:butt;stroke-linejoin:miter;stroke-opacity:1" />
    <path
       d="m 169.28571,37.142857 102.85715,0 -0.71429,-0.714286"
       inkscape:connector-curvature="0"
       transform="matrix(1.43547,-1.0554,0.413016,0.561755,-228.697,403.485)"
       id="path4145"
       style="fill:none;stroke:#ff0000;stroke-width:1px;stroke-linecap:butt;stroke-linejoin:miter;stroke-opacity:1" />
    <path
       d="m 169.28571,37.142857 102.85715,0 -0.71429,-0.714286"
       inkscape:connector-curvature="0"
       transform="matrix(1.42217,-1.04561,0.409188,0.556547,-182.308,402.027)"
       id="path4147"
       style="fill:none;stroke:#ff0000;stroke-width:1px;stroke-linecap:butt;stroke-linejoin:miter;stroke-opacity:1" />
    <path
       d="m 169.28571,37.142857 102.85715,0 -0.71429,-0.714286"
       inkscape:connector-curvature="0"
       transform="matrix(0.910295,-0.688281,0.668564,0.884218,-54.9816,328.74)"
       id="path4151"
       style="fill:none;stroke:#ff0000;stroke-width:1px;stroke-linecap:butt;stroke-linejoin:miter;stroke-opacity:1" />
    <path
       d="m 241.29165,75.357144 -112.5833,-1e-6 56.29165,-97.5 z"
       transform="matrix(-0.0479743,-0.0798025,0.142183,-0.0854755,32.4389,90.0953)"
       id="path4153"
       style="fill:#ff0000;fill-opacity:1;fill-rule:evenodd;stroke:#ff0000;stroke-width:0.93400002;stroke-linecap:butt;stroke-linejoin:miter;stroke-opacity:1;stroke-dasharray:none" />
    <path
       d="m 241.29165,75.357144 -112.5833,-1e-6 56.29165,-97.5 z"
       transform="matrix(-0.0479743,-0.0798025,0.142183,-0.0854755,32.4389,126.095)"
       id="path5124"
       style="fill:#ff0000;fill-opacity:1;fill-rule:evenodd;stroke:#ff0000;stroke-width:0.93400002;stroke-linecap:butt;stroke-linejoin:miter;stroke-opacity:1;stroke-dasharray:none" />
    <path
       d="m 241.29165,75.357144 -112.5833,-1e-6 56.29165,-97.5 z"
       transform="matrix(-0.0479743,-0.0798025,0.142183,-0.0854755,32.4389,160.095)"
       id="path5126"
       style="fill:#ff0000;fill-opacity:1;fill-rule:evenodd;stroke:#ff0000;stroke-width:0.93400002;stroke-linecap:butt;stroke-linejoin:miter;stroke-opacity:1;stroke-dasharray:none" />
    <path
       d="m 241.29165,75.357144 -112.5833,-1e-6 56.29165,-97.5 z"
       transform="matrix(-0.0479743,-0.0798025,0.142183,-0.0854755,32.4389,194.095)"
       id="path5128"
       style="fill:#ff0000;fill-opacity:1;fill-rule:evenodd;stroke:#ff0000;stroke-width:0.93400002;stroke-linecap:butt;stroke-linejoin:miter;stroke-opacity:1;stroke-dasharray:none" />
    <path
       d="m 241.29165,75.357144 -112.5833,-1e-6 56.29165,-97.5 z"
       transform="matrix(-0.0479743,-0.0798025,0.142183,-0.0854755,32.4389,230.095)"
       id="path5130"
       style="fill:#ff0000;fill-opacity:1;fill-rule:evenodd;stroke:#ff0000;stroke-width:0.93400002;stroke-linecap:butt;stroke-linejoin:miter;stroke-opacity:1;stroke-dasharray:none" />
    <path
       d="m 241.29165,75.357144 -112.5833,-1e-6 56.29165,-97.5 z"
       transform="matrix(-0.0479743,-0.0798025,0.142183,-0.0854755,32.4389,264.095)"
       id="path5132"
       style="fill:#ff0000;fill-opacity:1;fill-rule:evenodd;stroke:#ff0000;stroke-width:0.93400002;stroke-linecap:butt;stroke-linejoin:miter;stroke-opacity:1;stroke-dasharray:none" />
    <path
       d="m 241.29165,75.357144 -112.5833,-1e-6 56.29165,-97.5 z"
       transform="matrix(-0.0479743,-0.0798025,0.142183,-0.0854755,74.4389,264.095)"
       id="path5134"
       style="fill:#ff0000;fill-opacity:1;fill-rule:evenodd;stroke:#ff0000;stroke-width:0.93400002;stroke-linecap:butt;stroke-linejoin:miter;stroke-opacity:1;stroke-dasharray:none" />
    <path
       d="m 241.29165,75.357144 -112.5833,-1e-6 56.29165,-97.5 z"
       transform="matrix(-0.0479743,-0.0798025,0.142183,-0.0854755,124.439,264.095)"
       id="path5136"
       style="fill:#ff0000;fill-opacity:1;fill-rule:evenodd;stroke:#ff0000;stroke-width:0.93400002;stroke-linecap:butt;stroke-linejoin:miter;stroke-opacity:1;stroke-dasharray:none" />
  </g>
</svg>
